<?xml version="1.0" encoding="UTF-8" standalone="no"?>
<!-- Created with Inkscape (http://www.inkscape.org/) -->

<svg
   xmlns:dc="http://purl.org/dc/elements/1.1/"
   xmlns:cc="http://creativecommons.org/ns#"
   xmlns:rdf="http://www.w3.org/1999/02/22-rdf-syntax-ns#"
   xmlns:svg="http://www.w3.org/2000/svg"
   xmlns="http://www.w3.org/2000/svg"
   xmlns:sodipodi="http://sodipodi.sourceforge.net/DTD/sodipodi-0.dtd"
   xmlns:inkscape="http://www.inkscape.org/namespaces/inkscape"
   width="210mm"
   height="297mm"
   viewBox="0 0 210 297"
   version="1.1"
   id="svg8"
   inkscape:version="0.92.3 (2405546, 2018-03-11)"
   sodipodi:docname="logo11.svg">
  <defs
     id="defs2" />
  <sodipodi:namedview
     id="base"
     pagecolor="#ffffff"
     bordercolor="#666666"
     borderopacity="1.0"
     inkscape:pageopacity="0.0"
     inkscape:pageshadow="2"
     inkscape:zoom="0.35"
     inkscape:cx="448.57143"
     inkscape:cy="668.03449"
     inkscape:document-units="mm"
     inkscape:current-layer="layer1"
     showgrid="false"
     inkscape:window-width="1366"
     inkscape:window-height="705"
     inkscape:window-x="-8"
     inkscape:window-y="-8"
     inkscape:window-maximized="1" />
  <metadata
     id="metadata5">
    <rdf:RDF>
      <cc:Work
         rdf:about="">
        <dc:format>image/svg+xml</dc:format>
        <dc:type
           rdf:resource="http://purl.org/dc/dcmitype/StillImage" />
        <dc:title></dc:title>
      </cc:Work>
    </rdf:RDF>
  </metadata>
  <g
     inkscape:label="Capa 1"
     inkscape:groupmode="layer"
     id="layer1">
    <path
       style="fill:#000000;stroke-width:0.11286751"
       d="m 13.348425,31.511836 c -0.170715,-0.02982 -0.310388,-0.101608 -0.310388,-0.15956 0,-0.05796 -0.145393,-0.105371 -0.323096,-0.105371 -0.385744,0 -2.190723,-0.437037 -2.272197,-0.550167 -0.0314,-0.0436 -0.357752,-0.178902 -0.7252211,-0.300675 C 9.350049,30.274294 8.9945196,30.121239 8.9274518,30.055946 8.8603797,29.990648 8.5515528,29.815514 8.241169,29.666759 7.9307851,29.518004 7.6080431,29.328502 7.5239715,29.245646 7.4399,29.16279 7.179512,28.997249 6.9453377,28.877784 6.7111634,28.758314 6.4894966,28.58222 6.4527505,28.48646 6.4160214,28.3907 6.3143063,28.312349 6.2267581,28.312349 6.0577277,28.312349 4.1218812,26.479954 4.120964,26.319092 4.120627,26.266959 3.9450656,26.033369 3.7307318,25.80001 3.516398,25.566646 3.2569058,25.198417 3.1540731,24.98172 3.0512445,24.765023 2.923593,24.587721 2.8704105,24.587721 c -0.053187,0 -0.2336368,-0.292045 -0.4009992,-0.648986 C 2.3020446,23.581793 2.134085,23.264349 2.0961658,23.233311 2.0109211,23.163534 1.7019663,22.426424 1.5048239,21.822468 1.4237726,21.574161 1.3173949,21.341556 1.2684271,21.30557 1.1370216,21.208999 0.73378707,19.447805 0.65674567,18.633961 c -0.036729,-0.38798 -0.11022125,-0.70542 -0.16332266,-0.70542 -0.0531014,0 -0.0965449,-0.914229 -0.0965449,-2.031615 0,-1.279165 0.0418054,-2.031615 0.11286608,-2.031615 0.0620768,0 0.11287035,-0.130646 0.11287035,-0.290322 0,-0.450124 0.56652306,-2.808901 0.68478116,-2.851159 0.057909,-0.02069 0.1052899,-0.08821 0.1052899,-0.150051 0,-0.1661 0.5850369,-1.60886 0.679065,-1.67464 0.044365,-0.03106 0.2181603,-0.348478 0.386201,-0.705419 0.1680449,-0.356946 0.3468526,-0.648991 0.3973476,-0.648991 0.050495,0 0.1717179,-0.165067 0.2693804,-0.366817 C 3.2423426,6.976159 3.438593,6.678687 3.5807912,6.516862 3.7229935,6.355032 4.0678925,5.9537 4.3472422,5.625003 4.6265876,5.296306 4.9470517,4.946203 5.0593803,4.846992 5.1717089,4.747782 5.4292686,4.501538 5.6317305,4.299789 5.8341967,4.098039 6.0471953,3.932968 6.1050659,3.932968 c 0.057871,0 0.2490366,-0.152368 0.424807,-0.338603 0.1757747,-0.18623 0.3885856,-0.338602 0.4729216,-0.338602 0.084332,0 0.2205364,-0.09594 0.3026712,-0.213204 C 7.3875967,2.925295 7.778784,2.692989 8.1747624,2.526322 8.5707449,2.359659 8.9586864,2.159335 9.036854,2.081167 9.115026,2.002997 9.4758791,1.846553 9.8387543,1.733517 10.201625,1.620484 10.523915,1.493413 10.554954,1.451138 c 0.08946,-0.121845 1.982758,-0.56559295 2.413162,-0.56559295 0.214342,0 0.410879,-0.06348 0.436742,-0.14108 0.06271,-0.188116 4.576392,-0.191554 4.692568,-0.0034 0.04215,0.06816 0.279645,0.15901 0.527811,0.201873 0.719573,0.12428595 1.799932,0.40818295 1.861778,0.48923395 0.03118,0.04087 0.424944,0.199455 0.875,0.35239 0.450061,0.15294 0.81829,0.308669 0.81829,0.346068 0,0.03741 0.314663,0.217008 0.699251,0.399135 0.384589,0.182127 0.82372,0.445415 0.975854,0.585092 0.152133,0.139673 0.326854,0.253951 0.388265,0.253951 0.06142,0 0.224175,0.114278 0.36169,0.253951 0.137514,0.139673 0.471637,0.431718 0.742489,0.648991 0.610509,0.489729 1.23303,1.146496 1.233746,1.30162 8.54e-4,0.171786 -1.024318,1.181463 -1.199525,1.181463 -0.08257,0 -0.447382,-0.292045 -0.810692,-0.64899 C 23.74826,5.297147 23.090136,4.752913 22.674654,4.537359 22.498713,4.446079 22.328207,4.329957 22.295752,4.279304 22.263292,4.228654 21.957393,4.069237 21.615971,3.925038 21.274544,3.780843 20.96593,3.620682 20.930157,3.569124 20.894367,3.517564 20.48806,3.369064 20.02722,3.239126 19.566375,3.109184 19.163921,2.968351 19.132883,2.926157 18.843401,2.53267 15.005699,2.338936 13.25787,2.629578 c -0.648564,0.107849 -1.196134,0.242108 -1.216828,0.298358 -0.02069,0.05625 -0.120839,0.10227 -0.22255,0.10227 -0.350901,0 -1.77202,0.49922 -1.9873693,0.698137 C 9.7123654,3.83804 9.4457152,3.983723 9.2385693,4.052088 9.0314235,4.120448 8.861941,4.222556 8.861941,4.278985 c 0,0.05643 -0.1650674,0.174051 -0.3668212,0.261373 C 8.092619,4.714575 7.7571561,4.954841 7.2548726,5.428642 7.0738979,5.599353 6.8954954,5.739026 6.8584208,5.739026 6.7520047,5.739026 5.476304,7.026061 5.4760992,7.133624 5.4759969,7.186764 5.3489383,7.330127 5.1937463,7.452203 5.0385544,7.574279 4.9115769,7.743774 4.9115769,7.828865 c 0,0.08509 -0.090342,0.221079 -0.2007641,0.302194 C 4.600391,8.212169 4.3337408,8.634076 4.1182595,9.068618 3.9027739,9.503155 3.671479,9.917306 3.6042747,9.988947 c -0.067209,0.07164 -0.2390544,0.477964 -0.3818796,0.902941 -0.142821,0.424974 -0.2981921,0.798078 -0.3452616,0.829117 -0.047069,0.03106 -0.1960674,0.589729 -0.3311074,1.24154 -0.3542582,1.709943 -0.3625212,4.198287 -0.02005,6.035093 0.1385551,0.7431 0.292736,1.377979 0.342621,1.410843 0.049889,0.03285 0.2042237,0.403358 0.3429707,0.823319 0.1387428,0.419961 0.3150123,0.826314 0.3917082,0.90301 0.076696,0.0767 0.2312948,0.379947 0.3435509,0.673895 0.1122603,0.293947 0.2736719,0.592178 0.3586905,0.662735 0.085019,0.07056 0.1545776,0.19826 0.1545776,0.283773 0,0.08551 0.039843,0.155482 0.088534,0.155482 0.04869,0 0.1803605,0.155453 0.2925952,0.345454 0.1952398,0.330514 1.695619,1.971249 2.1499159,2.351038 0.119491,0.09989 0.3280573,0.283206 0.4634813,0.40736 0.3014938,0.27641 0.8309124,0.61297 1.0969228,0.697327 0.1086344,0.03447 0.1975178,0.100277 0.1975178,0.146276 0,0.046 0.2793455,0.20422 0.620772,0.351605 0.3414222,0.14739 0.6207677,0.298862 0.6207677,0.33661 0,0.03775 0.2158613,0.133441 0.4796873,0.212653 0.263831,0.07921 0.606665,0.185749 0.761857,0.236743 0.155192,0.051 0.447237,0.125331 0.648986,0.165182 0.201754,0.03984 0.366821,0.109104 0.366821,0.153896 0,0.187258 1.82142,0.397812 3.273159,0.378368 1.524576,-0.02043 3.160289,-0.20982 3.160289,-0.365934 0,-0.04563 0.190462,-0.11342 0.423254,-0.150653 0.507407,-0.08116 1.867414,-0.517696 1.946964,-0.624944 0.03106,-0.04185 0.284989,-0.173633 0.564339,-0.292868 0.279345,-0.119235 0.598764,-0.308293 0.709817,-0.42014 0.111053,-0.111842 0.267657,-0.203349 0.348009,-0.203349 0.08035,0 0.294233,-0.15096 0.475289,-0.335467 0.18106,-0.184507 0.391167,-0.336875 0.466903,-0.338603 0.07574,-0.0017 0.250359,-0.155503 0.388043,-0.341738 0.13769,-0.18623 0.319918,-0.338602 0.404963,-0.338602 0.22295,0 1.157336,0.980627 1.157336,1.214613 0,0.108622 -0.184836,0.349583 -0.410751,0.535468 -0.225916,0.185881 -0.485813,0.411028 -0.577551,0.500325 -0.197744,0.192489 -0.792839,0.550126 -1.071528,0.64397 -0.108634,0.03656 -0.197518,0.113178 -0.197518,0.170221 0,0.05704 -0.240236,0.206693 -0.533855,0.332553 -0.293623,0.12586 -0.560273,0.266945 -0.592557,0.31352 -0.03229,0.04657 -0.388833,0.20523 -0.792337,0.35256 -0.403499,0.147334 -0.759032,0.302347 -0.790071,0.344477 -0.07382,0.100196 -1.371162,0.421778 -2.088931,0.517798 -0.309902,0.04146 -0.597096,0.12685 -0.638211,0.189758 -0.07716,0.118054 -3.944763,0.217077 -4.524595,0.11584 z m 24.02398,-2.748095 c -0.428258,-0.05356 -0.809186,-0.144319 -0.846504,-0.201673 -0.03733,-0.05736 -0.271019,-0.139199 -0.519326,-0.181866 -0.515836,-0.08864 -1.552346,-0.425853 -1.636579,-0.532444 -0.03106,-0.03929 -0.335779,-0.190099 -0.677205,-0.335164 -0.341423,-0.14506 -0.689069,-0.330386 -0.772547,-0.411834 -0.08348,-0.08144 -0.30204,-0.225784 -0.48569,-0.320755 -0.40631,-0.21011 -0.5288,-0.315238 -1.699582,-1.458646 -0.910927,-0.889623 -1.32556,-1.389625 -1.474157,-1.77766 -0.04159,-0.108634 -0.124298,-0.197518 -0.183773,-0.197518 -0.05947,0 -0.24111,-0.290453 -0.403635,-0.64545 -0.162521,-0.355 -0.331317,-0.67244 -0.375093,-0.705423 -0.106544,-0.08028 -0.343056,-0.710829 -0.551682,-1.470817 -0.09373,-0.341422 -0.208737,-0.646167 -0.255576,-0.677205 -0.154838,-0.102603 -0.457445,-2.449729 -0.457445,-3.548111 0,-1.055527 0.281094,-3.111892 0.440697,-3.223939 0.04422,-0.03106 0.149591,-0.350842 0.23417,-0.71068 0.08458,-0.359838 0.195893,-0.680272 0.24736,-0.712082 0.05147,-0.03182 0.09358,-0.152791 0.09358,-0.268848 0,-0.116057 0.06673,-0.278129 0.148282,-0.360157 0.08156,-0.08203 0.286205,-0.441193 0.454778,-0.798134 0.16857,-0.356946 0.350006,-0.648991 0.403192,-0.648991 0.05319,0 0.177737,-0.170771 0.276778,-0.379486 0.09904,-0.20872 0.257201,-0.443496 0.351464,-0.521723 0.09426,-0.07823 0.171385,-0.183343 0.171385,-0.233582 0,-0.151002 1.319865,-1.435098 1.805205,-1.756279 0.248678,-0.164568 0.452142,-0.339695 0.452142,-0.389166 0,-0.04948 0.241256,-0.207794 0.536125,-0.351822 0.294864,-0.144028 0.594311,-0.316437 0.665435,-0.383126 0.07113,-0.06669 0.375869,-0.214406 0.67721,-0.328253 0.301336,-0.113847 0.576087,-0.249442 0.610559,-0.301319 0.03447,-0.05188 0.516984,-0.208912 1.072245,-0.348956 0.555257,-0.140043 1.037559,-0.292079 1.07178,-0.337856 0.204595,-0.273693 4.666158,-0.2604 4.841975,0.01442 0.03409,0.05329 0.239746,0.129989 0.457015,0.170455 0.657821,0.122516 1.693013,0.457172 1.693013,0.547318 0,0.04657 0.05792,0.08467 0.128722,0.08467 0.146626,0 1.139991,0.470149 1.225688,0.580102 0.03106,0.03984 0.272294,0.184677 0.53612,0.321888 0.263827,0.137212 0.479688,0.284188 0.479688,0.326612 0,0.0424 0.165067,0.172417 0.366817,0.288871 0.437105,0.252304 1.439061,1.244125 1.439061,1.424498 0,0.209773 -0.455329,0.782657 -0.622056,0.782657 -0.08537,0 -0.234089,0.112606 -0.330493,0.250239 L 46.786273,9.28675 46.283341,8.754337 C 46.00673,8.461511 45.74571,8.221928 45.703303,8.221928 c -0.0424,0 -0.194779,-0.126978 -0.338611,-0.28217 -0.143827,-0.155191 -0.294011,-0.282169 -0.333739,-0.282169 -0.03971,0 -0.201379,-0.101579 -0.359215,-0.225732 -0.157837,-0.124158 -0.35573,-0.225737 -0.439763,-0.225737 -0.08404,0 -0.250658,-0.0838 -0.370277,-0.186217 -0.239315,-0.204906 -0.909822,-0.479611 -1.393456,-0.570896 -0.170716,-0.03221 -0.310388,-0.09666 -0.310388,-0.143213 0,-0.20268 -1.498029,-0.39617 -3.047423,-0.393611 -1.555328,0.0026 -3.047423,0.197172 -3.047423,0.39745 0,0.04866 -0.157666,0.123109 -0.350372,0.165434 -0.465703,0.102287 -1.352191,0.498748 -1.543929,0.690485 -0.08439,0.08439 -0.218578,0.153434 -0.298196,0.153434 -0.07962,0 -0.273587,0.119398 -0.431048,0.265324 -0.157457,0.145931 -0.482315,0.386184 -0.721903,0.533906 -0.239588,0.147719 -0.56259,0.419658 -0.717782,0.604319 -0.155192,0.184656 -0.421842,0.460696 -0.592553,0.613426 -0.170711,0.152731 -0.310388,0.338556 -0.310388,0.412944 0,0.07439 -0.118421,0.256459 -0.263157,0.404595 -0.144736,0.148141 -0.385992,0.497903 -0.53612,0.777248 -0.150129,0.279346 -0.305346,0.533301 -0.344929,0.564339 -0.134566,0.105525 -0.458593,0.957135 -0.621177,1.6326 -0.08913,0.370276 -0.213229,0.70486 -0.275775,0.743517 -0.116714,0.07213 -0.330566,2.699145 -0.272333,3.345397 0.09957,1.105058 0.201788,1.727741 0.283608,1.727741 0.05084,0 0.145371,0.246844 0.210076,0.548543 0.13132,0.612325 0.550347,1.731968 0.681364,1.820609 0.04675,0.03161 0.219112,0.343602 0.383044,0.693283 0.163929,0.349681 0.375558,0.665525 0.47029,0.701878 0.09474,0.03634 0.172196,0.13118 0.17214,0.210725 -5.5e-5,0.07954 0.149339,0.296994 0.331991,0.483228 0.182651,0.18623 0.474743,0.494204 0.649093,0.684385 0.174345,0.19018 0.520157,0.49492 0.768464,0.677205 0.248312,0.182284 0.525644,0.401967 0.616297,0.488184 0.09065,0.08622 0.327256,0.224632 0.52578,0.307582 0.198525,0.08295 0.378305,0.200614 0.399511,0.26148 0.0212,0.06087 0.368698,0.226854 0.772197,0.36886 0.403503,0.14201 0.76108,0.295091 0.794614,0.340185 0.16061,0.215951 1.827993,0.450859 3.15575,0.444601 1.37303,-0.0065 3.240994,-0.248542 3.375633,-0.437447 0.03677,-0.05157 0.35736,-0.183381 0.712464,-0.292919 0.355103,-0.109535 0.712599,-0.260521 0.794435,-0.335527 0.08184,-0.075 0.261117,-0.19986 0.398388,-0.277456 0.610696,-0.345206 0.752365,-0.44144 1.080896,-0.734218 0.191921,-0.171031 0.437119,-0.338953 0.544891,-0.373156 0.215712,-0.06846 0.881152,0.365759 0.881152,0.574986 0,0.07182 0.101416,0.222362 0.225373,0.334542 0.223416,0.202189 0.221701,0.207312 -0.197517,0.589814 -0.688339,0.62805 -0.743834,0.670222 -1.156534,0.87887 -0.217269,0.109846 -0.42043,0.230727 -0.451469,0.268621 -0.114414,0.139694 -0.995643,0.576808 -1.162852,0.576808 -0.09501,0 -0.189796,0.05114 -0.210631,0.113651 -0.02082,0.06251 -0.418694,0.221031 -0.884129,0.35227 -0.465435,0.131239 -0.871639,0.275404 -0.902677,0.320366 -0.160405,0.232349 -3.383803,0.390629 -4.672583,0.229439 z M 3.0676297,18.450226 C 2.856137,18.263518 2.7283063,18.021533 2.6911933,17.73764 2.6438683,17.375665 2.6886333,17.24829 2.9737766,16.931192 3.3422017,16.521661 3.8407611,16.355476 4.7140591,16.351086 l 0.5361203,-0.0026 V 15.92213 c 0,-0.643713 -0.2533707,-0.92837 -0.8246885,-0.92651 -0.6954971,0.0021 -0.9640585,0.103144 -1.0030655,0.376782 -0.024187,0.169687 -0.127707,0.253166 -0.3449458,0.27816 -0.2788848,0.03208 -0.3103839,4.26e-4 -0.3103839,-0.310384 0,-0.190356 0.041208,-0.346102 0.091584,-0.346102 0.050371,0 0.2083275,-0.108758 0.3510119,-0.241691 0.1941307,-0.18086 0.4480602,-0.254855 1.0088756,-0.293986 0.6454627,-0.04503 0.7870764,-0.01932 1.0206663,0.185262 0.1491728,0.130651 0.3092704,0.237549 0.3557768,0.237549 0.2039337,0 0.3323744,0.813418 0.3323744,2.104889 0,1.163867 0.027941,1.394002 0.1693034,1.394002 0.093115,0 0.1692991,0.07619 0.1692991,0.169303 0,0.111813 -0.1118423,0.169299 -0.3293712,0.169299 -0.4432525,0 -0.6864363,-0.10424 -0.6864363,-0.294241 0,-0.20817 -0.1060407,-0.198388 -0.3621586,0.0334 -0.1295456,0.117235 -0.4588613,0.206899 -0.8553942,0.232899 -0.5610329,0.03677 -0.6863467,0.0055 -0.9649969,-0.240436 z m 1.844924,-0.483911 C 5.1892842,17.719749 5.2501794,17.577248 5.2501794,17.176244 V 16.686997 H 4.7987108 c -0.2483071,0 -0.4514686,0.05079 -0.4514686,0.112866 0,0.06208 -0.1269775,0.112871 -0.2821695,0.112871 -0.5706311,0 -0.9035728,0.633893 -0.593624,1.130205 0.2188342,0.350406 1.0089907,0.308396 1.441105,-0.07662 z m 2.1435086,0.585148 c 0,-0.09193 0.1269733,-0.199019 0.2821652,-0.237971 L 7.620397,18.24267 v -1.616491 c 0,-1.590432 -0.00427,-1.617076 -0.2539508,-1.65256 -0.1653191,-0.02346 -0.2668252,-0.126866 -0.2908335,-0.296217 -0.035023,-0.247155 -0.00687,-0.258434 0.5637162,-0.225736 0.5687455,0.03259 0.6036659,0.05231 0.6585632,0.371876 l 0.057964,0.337464 0.3826518,-0.365678 c 0.2104561,-0.201127 0.5020915,-0.365682 0.6480734,-0.365682 0.2196789,0 0.2654303,0.05837 0.2654303,0.338602 0,0.315686 -0.028667,0.338735 -0.4232542,0.340556 -0.2971768,0.0013 -0.4988964,0.08175 -0.6772051,0.269859 -0.2330609,0.245871 -0.2539508,0.374529 -0.2539508,1.564085 v 1.296177 l 0.3386025,0.06772 c 0.1985971,0.03972 0.3386025,0.138893 0.3386025,0.239844 0,0.140752 -0.174849,0.172123 -0.9593745,0.172123 -0.7720436,0 -0.9593702,-0.03263 -0.9593697,-0.167149 z m 3.1813837,-0.03037 c 0.02069,-0.108638 0.151404,-0.213749 0.290445,-0.233585 l 0.252799,-0.03609 v -2.580251 -2.580251 l -0.253955,-0.03609 c -0.163199,-0.02316 -0.266838,-0.126815 -0.290019,-0.290018 -0.0337,-0.237276 0.0052,-0.253951 0.592558,-0.253951 h 0.628621 v 2.864012 2.864012 l 0.338603,0.06772 c 0.198597,0.03972 0.338602,0.138892 0.338602,0.239843 0,0.140867 -0.175711,0.172123 -0.96765,0.172123 -0.860667,0 -0.963487,-0.02184 -0.930004,-0.197517 z m 3.284071,-0.05644 c -0.494456,-0.348943 -0.766144,-1.00066 -0.763405,-1.831231 0.0026,-0.809664 0.20218,-1.348574 0.669616,-1.808745 0.311053,-0.30622 0.414112,-0.338603 1.07759,-0.338603 0.685267,0 0.760611,0.02602 1.142772,0.395036 0.491457,0.474525 0.665231,0.949311 0.656801,1.794506 -0.0089,0.887567 -0.316855,1.599321 -0.796256,1.840052 -0.573716,0.288091 -1.541822,0.263238 -1.987118,-0.05101 z m 1.426729,-0.197518 c 0.116121,0 0.288218,-0.175928 0.414019,-0.42325 0.118411,-0.232792 0.253383,-0.440185 0.299945,-0.460875 0.12278,-0.05457 0.104236,-1.486093 -0.01924,-1.486093 -0.05715,0 -0.137463,-0.15279 -0.178479,-0.339541 -0.09535,-0.434115 -0.383194,-0.584102 -1.038647,-0.541209 -0.465175,0.03046 -0.548027,0.0781 -0.746299,0.429282 -0.341815,0.605428 -0.318276,1.886917 0.04439,2.416182 0.261535,0.381688 0.556686,0.532111 0.875277,0.446094 0.08267,-0.02231 0.239741,-0.04057 0.349046,-0.04057 z m 2.858445,0.325199 c -0.33449,-0.09658 -0.366821,-0.145423 -0.366821,-0.55416 0,-0.327277 0.04665,-0.448244 0.172844,-0.448244 0.09506,0 0.206502,0.08888 0.247637,0.197518 0.145278,0.383658 0.392916,0.523101 0.928993,0.523101 0.666131,0 1.05653,-0.30942 1.001163,-0.793484 -0.03089,-0.269961 -0.119162,-0.349609 -0.544754,-0.49147 -0.27935,-0.09311 -0.533301,-0.197172 -0.564339,-0.23123 -0.03106,-0.03404 -0.272486,-0.125041 -0.536551,-0.202177 -0.386449,-0.112891 -0.51291,-0.218723 -0.648172,-0.542455 -0.201353,-0.481897 -0.141614,-0.773029 0.251362,-1.225056 0.278739,-0.320626 0.339792,-0.338586 1.149985,-0.3383 1.049457,3.42e-4 1.363522,0.201059 1.363522,0.871289 0,0.35114 -0.03984,0.426385 -0.225736,0.426385 -0.16613,0 -0.225736,-0.07525 -0.225736,-0.284963 0,-0.325148 -0.341137,-0.505108 -0.957489,-0.505108 -0.519612,0 -0.735524,0.10018 -0.735524,0.341273 0,0.112337 -0.06349,0.226018 -0.141085,0.252624 -0.188393,0.06459 0.552924,0.760513 0.810121,0.760513 0.439281,0 1.222484,0.358994 1.365271,0.625798 0.08158,0.152427 0.19053,0.27714 0.242117,0.27714 0.05159,0 0.09379,0.152372 0.09379,0.338602 0,0.186235 -0.04486,0.338603 -0.0997,0.338603 -0.05484,0 -0.126444,0.102261 -0.159129,0.227246 -0.123604,0.472662 -1.461475,0.713828 -2.421771,0.436555 z m 12.310628,-0.100576 c -0.447672,-0.295206 -0.600625,-0.914301 -0.600625,-2.431091 0,-0.872923 -0.03076,-1.066687 -0.169303,-1.066687 -0.105341,0 -0.169299,-0.106599 -0.169299,-0.282169 0,-0.25814 0.04219,-0.28217 0.495603,-0.28217 h 0.495599 l 0.0446,1.664794 c 0.05415,2.021292 0.117951,2.1727 0.915504,2.1727 0.450458,0 0.588996,-0.05271 0.81579,-0.310384 0.255158,-0.289903 0.273425,-0.39739 0.276756,-1.62873 0.0034,-1.282479 -0.0034,-1.319324 -0.250384,-1.35441 -0.163203,-0.02316 -0.266842,-0.126816 -0.290023,-0.290019 -0.0337,-0.237275 0.0052,-0.253951 0.592557,-0.253951 h 0.628622 v 1.905585 c 0,1.810661 0.01126,1.908524 0.225732,1.964615 0.124158,0.03246 0.225736,0.139972 0.225736,0.238897 0,0.140598 -0.123215,0.17987 -0.564339,0.17987 -0.554084,0 -0.564334,-0.0063 -0.564334,-0.344899 v -0.344895 l -0.263046,0.305807 c -0.365119,0.424474 -1.316832,0.505526 -1.84515,0.157137 z m 4.826793,0.01216 c -0.482963,-0.257266 -0.784811,-0.952707 -0.793543,-1.828304 -0.0084,-0.838135 0.167567,-1.316645 0.659454,-1.793666 0.372333,-0.361075 0.463371,-0.394263 1.083686,-0.395036 0.600701,-8.53e-4 0.716383,0.03741 1.024041,0.337763 0.389375,0.380126 0.612535,0.920832 0.612535,1.484117 v 0.378194 h -1.354411 c -1.502533,0 -1.473372,-0.01826 -1.244534,0.779641 0.171134,0.596696 0.510849,0.844465 1.144735,0.834906 0.338692,-0.0051 0.609407,-0.07641 0.723579,-0.190586 0.239741,-0.239741 0.358554,-0.23013 0.503508,0.04074 0.10427,0.19483 0.06723,0.24495 -0.291981,0.39504 -0.561349,0.234545 -1.58626,0.213331 -2.067069,-0.04279 z m 1.908545,-2.522355 c -2.22e-4,-0.139673 -0.101062,-0.419019 -0.224073,-0.620768 -0.198353,-0.325323 -0.280433,-0.366821 -0.725533,-0.366821 -0.421317,0 -0.538138,0.05093 -0.727793,0.317269 -0.124252,0.174499 -0.260192,0.453844 -0.302091,0.620772 l -0.07617,0.303503 h 1.028042 c 0.991002,0 1.02803,-0.0092 1.02762,-0.253955 z m 1.48861,2.539521 c 0.02261,-0.119129 0.160255,-0.211694 0.346878,-0.233232 l 0.30942,-0.03571 v -2.58096 -2.580959 l -0.310388,-0.03571 c -0.222234,-0.02555 -0.320626,-0.107833 -0.346452,-0.289665 -0.034,-0.239426 0.003,-0.253951 0.648991,-0.253951 h 0.685054 v 2.864955 c 0,2.770035 0.0075,2.866917 0.225732,2.92399 0.124158,0.03246 0.225737,0.139971 0.225737,0.238897 0,0.149727 -0.152701,0.179869 -0.911213,0.179869 -0.806853,0 -0.90693,-0.02261 -0.873759,-0.197517 z m 2.462177,0.0372 c 0,-0.08818 0.152372,-0.193802 0.338602,-0.234703 l 0.338603,-0.07437 v -2.579488 -2.579488 l -0.310384,-0.03571 c -0.222239,-0.02555 -0.320631,-0.107833 -0.346452,-0.289665 -0.034,-0.239425 0.003,-0.253951 0.648986,-0.253951 h 0.685055 v 2.869153 2.869152 l 0.338602,0.07437 c 0.18623,0.04091 0.338603,0.14652 0.338603,0.234703 0,0.126654 -0.213366,0.160333 -1.015808,0.160333 -0.802442,0 -1.015807,-0.0337 -1.015807,-0.160333 z m 3.386026,0.08026 c -0.613213,-0.225476 -0.839291,-1.041868 -0.458947,-1.657282 0.210328,-0.340317 0.320072,-0.399084 0.950169,-0.50881 0.39181,-0.06823 0.873285,-0.124055 1.06995,-0.124055 0.341925,0 0.357577,-0.01975 0.357577,-0.451469 0,-0.619804 -0.297941,-0.902941 -0.950144,-0.902941 -0.636807,0 -0.855739,0.08663 -0.855739,0.338602 0,0.185509 -0.208298,0.338603 -0.4607,0.338603 -0.057,0 -0.103635,-0.16648 -0.103635,-0.369953 0,-0.564066 0.339379,-0.78543 1.29851,-0.846986 0.797558,-0.05118 0.803615,-0.04939 1.246966,0.368429 l 0.445514,0.419863 0.03707,1.519247 c 0.02888,1.183687 0.07253,1.532843 0.197518,1.580808 0.08824,0.03387 0.16043,0.135236 0.16043,0.22528 0,0.12278 -0.119798,0.155034 -0.479145,0.129008 -0.430259,-0.03118 -0.486475,-0.06926 -0.550983,-0.373309 -0.0395,-0.186231 -0.07785,-0.279256 -0.08519,-0.206724 -0.03989,0.394038 -1.234629,0.736641 -1.819235,0.521689 z m 1.242256,-0.45605 c 3.37e-4,-0.04656 0.152765,-0.171172 0.338602,-0.276918 0.297536,-0.169308 0.337891,-0.253554 0.337891,-0.705424 v -0.513153 h -0.507906 c -0.279346,0 -0.507902,0.05079 -0.507902,0.112866 0,0.06208 -0.09896,0.112871 -0.219922,0.112871 -0.274342,0 -0.795885,0.470746 -0.795885,0.718362 0,0.101518 0.04737,0.184575 0.10526,0.184575 0.0579,0 0.137501,0.101583 0.176909,0.225736 0.05745,0.181009 0.170771,0.225737 0.571941,0.225737 0.275165,0 0.50062,-0.03809 0.501012,-0.08465 z m 2.369505,0.363997 c 0,-0.100951 0.140006,-0.200124 0.338603,-0.239844 l 0.338602,-0.06772 v -1.614975 -1.614973 l -0.310388,-0.03571 c -0.222234,-0.02555 -0.320626,-0.107837 -0.346452,-0.289665 -0.034,-0.239425 0.003,-0.253955 0.648991,-0.253955 h 0.685054 l 0.0034,0.366821 0.0034,0.366821 0.274994,-0.312486 c 0.151246,-0.171868 0.428992,-0.343287 0.617206,-0.380929 0.322631,-0.06453 0.342211,-0.04826 0.342211,0.284268 0,0.334512 -0.02265,0.35271 -0.438492,0.35271 -0.682567,0 -0.803052,0.277477 -0.803052,1.849378 v 1.292977 l 0.338603,0.07437 c 0.18623,0.04091 0.338602,0.14652 0.338602,0.234703 0,0.126654 -0.213365,0.160333 -1.015807,0.160333 -0.835098,0 -1.015808,-0.03063 -1.015808,-0.172123 z"
       id="path41"
       inkscape:connector-curvature="0" />
  </g>
</svg>
